<svg width="18" height="20" viewBox="0 0 18 20" fill="none" xmlns="http://www.w3.org/2000/svg">
<path d="M17.9999 10.2069C17.9999 9.60151 17.9463 9.02679 17.8543 8.46741H9.19531V11.9233H14.1532C13.9309 13.0574 13.2796 14.0153 12.3141 14.6666V16.9655H15.2719C17.0037 15.364 17.9999 13.0038 17.9999 10.2069Z" fill="#4285F4"/>
<path d="M9.19517 19.1954C11.6779 19.1954 13.7546 18.3678 15.2718 16.9655L12.3139 14.6666C11.4864 15.2184 10.4366 15.5555 9.19517 15.5555C6.79671 15.5555 4.76606 13.9387 4.03809 11.7548H0.988281V14.1226C2.49786 17.1264 5.60131 19.1954 9.19517 19.1954Z" fill="#34A853"/>
<path d="M4.03831 11.7547C3.84674 11.203 3.74712 10.6129 3.74712 9.99992C3.74712 9.38689 3.8544 8.79686 4.03831 8.24513V5.87732H0.988505C0.360152 7.1187 0 8.51333 0 9.99992C0 11.4865 0.360152 12.8811 0.988505 14.1225L4.03831 11.7547Z" fill="#FBBC05"/>
<path d="M9.19517 4.44441C10.5515 4.44441 11.7622 4.91185 12.7201 5.82372L15.3408 3.20303C13.7546 1.71644 11.6779 0.804565 9.19517 0.804565C5.60131 0.804565 2.49786 2.87353 0.988281 5.87736L4.03809 8.24518C4.76606 6.06127 6.79671 4.44441 9.19517 4.44441Z" fill="#EA4335"/>
</svg>
