<svg width="144" height="144" viewBox="0 0 144 144" fill="none" xmlns="http://www.w3.org/2000/svg">
<path d="M93.91 8.67055C74.14 11.4985 65.7635 24.776 65.7635 24.776C64.7219 22.0657 63.3816 19.4768 61.7666 17.056C61.6493 16.8847 61.4807 16.7539 61.2843 16.6821C61.0879 16.6102 60.8737 16.6008 60.6717 16.6552C58.4099 17.3526 56.3082 18.4802 54.485 19.9746C54.3814 20.0573 54.2956 20.1596 54.2325 20.2754C54.1694 20.3913 54.1303 20.5184 54.1175 20.6493C54.1046 20.7802 54.1183 20.9123 54.1578 21.038C54.1972 21.1636 54.2616 21.2802 54.3472 21.381C57.4562 25.1941 59.9841 29.4354 61.8508 33.9705C61.8622 33.978 61.8755 33.982 61.8891 33.982C61.9027 33.982 61.9161 33.978 61.9274 33.9705C65.2549 33.4722 68.6153 33.2195 71.9808 33.2144H72.8384C74.3315 31.3694 80.3727 24.0955 85.6406 20.1636C85.7631 20.0624 85.9197 20.0104 86.0793 20.0181C86.2389 20.0257 86.3897 20.0925 86.5017 20.205C86.6137 20.3175 86.6786 20.4675 86.6837 20.6252C86.6887 20.7829 86.6334 20.9366 86.5288 21.0559C83.8719 24.3828 80.4033 28.292 76.8123 33.2597C76.8043 33.2716 76.7996 33.2854 76.7985 33.2996C76.7975 33.3138 76.8002 33.3281 76.8063 33.341C76.8125 33.3539 76.8219 33.365 76.8337 33.3733C76.8454 33.3816 76.8592 33.3868 76.8735 33.3883C80.4858 33.6476 84.0708 34.1963 87.5931 35.0291C87.6038 35.0344 87.6156 35.0372 87.6275 35.0372C87.6395 35.0372 87.6513 35.0344 87.662 35.0291C96.0845 27.8232 97.5546 17.4265 97.6771 11.9446C97.6816 11.4744 97.5834 11.0087 97.3893 10.5794C97.1952 10.15 96.9097 9.76693 96.5522 9.45627C96.1948 9.14561 95.7737 8.91463 95.3178 8.77905C94.8618 8.64347 94.3817 8.60646 93.91 8.67055Z" fill="white"/>
<path d="M71.9961 36.8437C42.5786 36.8437 18.72 57.0398 18.72 81.9541C18.72 97.3488 27.8316 110.936 41.7364 119.08L37.5481 133.091C37.3836 133.639 37.3875 134.223 37.5593 134.769C37.7311 135.315 38.0631 135.798 38.5132 136.157C38.9633 136.517 39.5113 136.736 40.0878 136.788C40.6643 136.84 41.2434 136.721 41.7517 136.448L61.0928 126.134C64.6932 126.753 68.3418 127.057 71.9961 127.042C101.421 127.042 125.28 106.846 125.28 81.9314C125.28 57.0171 101.421 36.8437 71.9961 36.8437ZM77.6469 111.761C58.5048 111.761 42.9768 98.6115 42.9768 82.4002C42.9768 66.1889 58.4972 53.0399 77.6469 53.0399C96.7966 53.0399 112.325 66.1813 112.325 82.4002C112.325 98.6191 96.7966 111.761 77.6469 111.761Z" fill="white"/>
<path d="M69.4848 85.4474C71.4427 85.4474 73.0299 83.88 73.0299 81.9465C73.0299 80.013 71.4427 78.4456 69.4848 78.4456C67.5269 78.4456 65.9397 80.013 65.9397 81.9465C65.9397 83.88 67.5269 85.4474 69.4848 85.4474Z" fill="white"/>
<path d="M80.8398 90.8234C82.7977 90.8234 84.3849 89.256 84.3849 87.3225C84.3849 85.3891 82.7977 83.8217 80.8398 83.8217C78.8819 83.8217 77.2947 85.3891 77.2947 87.3225C77.2947 89.256 78.8819 90.8234 80.8398 90.8234Z" fill="white"/>
<path d="M92.195 85.4474C94.1529 85.4474 95.7401 83.88 95.7401 81.9465C95.7401 80.013 94.1529 78.4456 92.195 78.4456C90.2371 78.4456 88.6499 80.013 88.6499 81.9465C88.6499 83.88 90.2371 85.4474 92.195 85.4474Z" fill="white"/>
</svg>
