<svg width="24" height="24" viewBox="0 0 24 24" fill="none" xmlns="http://www.w3.org/2000/svg">
<path fill-rule="evenodd" clip-rule="evenodd" d="M12 2L3 9V20C3 20.5304 3.21071 21.0391 3.58579 21.4142C3.96086 21.7893 4.46957 22 5 22H19C19.5304 22 20.0391 21.7893 20.4142 21.4142C20.7893 21.0391 21 20.5304 21 20V9L12 2ZM8 11V21H16V11H8Z" fill="#7B86AA"/>
<path d="M3 9L2.38606 8.21065C2.14247 8.4001 2 8.69141 2 9H3ZM12 2L12.6139 1.21065C12.2528 0.929784 11.7472 0.929784 11.3861 1.21065L12 2ZM3.58579 21.4142L4.29289 20.7071L4.29289 20.7071L3.58579 21.4142ZM21 9H22C22 8.69141 21.8575 8.4001 21.6139 8.21065L21 9ZM8 21H7C7 21.5523 7.44772 22 8 22V21ZM8 11V10C7.44772 10 7 10.4477 7 11H8ZM16 21V22C16.5523 22 17 21.5523 17 21H16ZM16 11H17C17 10.4477 16.5523 10 16 10V11ZM3.61394 9.78935L12.6139 2.78935L11.3861 1.21065L2.38606 8.21065L3.61394 9.78935ZM4 20V9H2V20H4ZM4.29289 20.7071C4.10536 20.5196 4 20.2652 4 20H2C2 20.7957 2.31607 21.5587 2.87868 22.1213L4.29289 20.7071ZM5 21C4.73478 21 4.48043 20.8946 4.29289 20.7071L2.87868 22.1213C3.44129 22.6839 4.20435 23 5 23V21ZM19 21H5V23H19V21ZM19.7071 20.7071C19.5196 20.8946 19.2652 21 19 21V23C19.7957 23 20.5587 22.6839 21.1213 22.1213L19.7071 20.7071ZM20 20C20 20.2652 19.8946 20.5196 19.7071 20.7071L21.1213 22.1213C21.6839 21.5587 22 20.7957 22 20H20ZM20 9V20H22V9H20ZM11.3861 2.78935L20.3861 9.78935L21.6139 8.21065L12.6139 1.21065L11.3861 2.78935ZM9 21V11H7V21H9ZM16 20H8V22H16V20ZM15 11V21H17V11H15ZM8 12H16V10H8V12Z" fill="#7B86AA"/>
</svg>
