<svg width="25" height="25" viewBox="0 0 25 25" fill="none" xmlns="http://www.w3.org/2000/svg">
<path d="M12.4992 2.0835C9.68664 2.13826 7.01057 3.30618 5.05784 5.33116C3.10512 7.35613 2.03515 10.0729 2.08257 12.8856V17.7085C2.08257 18.5326 2.32694 19.3382 2.78478 20.0234C3.24262 20.7086 3.89336 21.2426 4.65472 21.558C5.41608 21.8734 6.25385 21.9559 7.06211 21.7951C7.87036 21.6343 8.61279 21.2375 9.19551 20.6548C9.77823 20.0721 10.1751 19.3296 10.3358 18.5214C10.4966 17.7131 10.4141 16.8753 10.0987 16.114C9.78337 15.3526 9.24931 14.7019 8.56411 14.244C7.8789 13.7862 7.07332 13.5418 6.24923 13.5418C5.5149 13.5449 4.79506 13.7465 4.1659 14.1252V12.8856C4.11837 10.6253 4.96882 8.43845 6.53087 6.80415C8.09292 5.16986 10.2392 4.22147 12.4992 4.16683C14.7593 4.22147 16.9055 5.16986 18.4676 6.80415C20.0296 8.43845 20.8801 10.6253 20.8326 12.8856V14.1252C20.2034 13.7465 19.4836 13.5449 18.7492 13.5418C17.9251 13.5418 17.1196 13.7862 16.4344 14.244C15.7492 14.7019 15.2151 15.3526 14.8997 16.114C14.5844 16.8753 14.5019 17.7131 14.6626 18.5214C14.8234 19.3296 15.2202 20.0721 15.803 20.6548C16.3857 21.2375 17.1281 21.6343 17.9364 21.7951C18.7446 21.9559 19.5824 21.8734 20.3437 21.558C21.1051 21.2426 21.7558 20.7086 22.2137 20.0234C22.6715 19.3382 22.9159 18.5326 22.9159 17.7085V12.8856C22.9633 10.0729 21.8933 7.35613 19.9406 5.33116C17.9879 3.30618 15.3118 2.13826 12.4992 2.0835Z" fill="#767676"/>
</svg>
