<svg width="120" height="34" viewBox="0 0 120 34" fill="none" xmlns="http://www.w3.org/2000/svg">
<rect x="0.5" y="0.5" width="119" height="33" rx="16.5" fill="white" stroke="#DBDBDB"/>
<path d="M41.6482 15.028H43.9862V19.732H45.4282V10.45H43.9862V13.852H41.6622C41.4382 12.312 40.1082 11.234 38.4282 11.234C36.5522 11.234 35.1242 12.564 35.1242 14.398C35.1242 16.246 36.5522 17.576 38.4282 17.576C40.0522 17.576 41.3822 16.554 41.6482 15.028ZM36.5102 14.398C36.5102 13.222 37.3222 12.494 38.4282 12.494C39.5062 12.494 40.3322 13.236 40.3322 14.398C40.3322 15.56 39.5062 16.33 38.4282 16.33C37.3082 16.33 36.5102 15.574 36.5102 14.398ZM45.7502 21.664H38.6802V18.794H37.2382V22.84H45.7502V21.664ZM59.4831 13.068H57.7051V10.422H56.2631V16.96H57.7051V14.258H59.4831V13.068ZM55.5071 16.19L55.4371 15.14C54.8911 15.21 54.3311 15.238 53.7711 15.28V12.382H54.9191V11.234H48.1571V12.382H49.3051V15.448H47.8211L47.9751 16.624C50.1871 16.624 52.9591 16.568 55.5071 16.19ZM50.6911 15.42V12.382H52.3711V15.364C51.8111 15.406 51.2371 15.406 50.6911 15.42ZM50.9851 21.832V20.726H57.7051V17.534H49.5431V18.654H56.2771V19.662H49.5711V22.966H58.1251V21.832H50.9851ZM72.166 20.404H67.14V18.248H71.088V17.086H63.514V15.322H70.808V11.318H62.072V12.48H69.38V14.174H62.1V18.248H65.698V20.404H60.714V21.594H72.166V20.404ZM79.2909 16.512C81.9369 16.512 83.7709 15.42 83.7709 13.698C83.7709 11.976 81.9369 10.898 79.2909 10.898C76.6169 10.898 74.7969 11.976 74.7969 13.698C74.7969 15.42 76.6169 16.512 79.2909 16.512ZM79.2909 12.06C81.0969 12.06 82.2869 12.676 82.2869 13.698C82.2869 14.762 81.0969 15.35 79.2909 15.35C77.4289 15.35 76.2809 14.762 76.2809 13.698C76.2809 12.676 77.4289 12.06 79.2909 12.06ZM85.0449 18.78V17.59H73.5789V18.78H78.5489V23.078H79.9909V18.78H85.0449Z" fill="#767676"/>
</svg>
