<svg width="90" height="32" viewBox="0 0 90 32" fill="none" xmlns="http://www.w3.org/2000/svg">
<rect width="90" height="32" rx="16" fill="#FFC7A7"/>
<path d="M42.3211 9.422H40.8791V13.944H38.3871V15.134H40.8791V22.092H42.3211V9.422ZM36.3711 12.894V11.872H39.1151V10.696H32.1851V11.872H34.9151V12.894C34.9151 15.176 33.6411 17.584 31.6951 18.522L32.5491 19.67C34.0191 18.886 35.1111 17.388 35.6711 15.582C36.2311 17.276 37.2951 18.69 38.7511 19.404L39.5911 18.27C37.6451 17.374 36.3711 15.022 36.3711 12.894ZM56.376 12.516H54.584V9.436H53.142V16.996H54.584V13.706H56.376V12.516ZM51.434 16.506L52.134 15.386C50.202 14.756 49.152 13.314 49.152 11.732V11.494H51.798V10.332H45.008V11.494H47.696V11.746C47.696 13.468 46.59 15.106 44.602 15.778L45.33 16.912C46.842 16.394 47.906 15.316 48.466 13.972C49.012 15.148 50.02 16.058 51.434 16.506ZM50.51 17.29C47.906 17.29 46.296 18.172 46.296 19.684C46.296 21.196 47.906 22.078 50.51 22.078C53.114 22.078 54.724 21.196 54.724 19.684C54.724 18.172 53.114 17.29 50.51 17.29ZM50.51 20.944C48.704 20.944 47.724 20.524 47.724 19.684C47.724 18.844 48.704 18.424 50.51 18.424C52.316 18.424 53.296 18.844 53.296 19.684C53.296 20.524 52.316 20.944 50.51 20.944Z" fill="white"/>
</svg>
