<svg width="56" height="28" viewBox="0 0 56 28" fill="none" xmlns="http://www.w3.org/2000/svg">
<rect width="56" height="28" rx="14" fill="#F26E22"/>
<path d="M20.4294 11.488H22.0254V12.304H20.4294V14.716H19.4454V9.124H20.4294V11.488ZM18.6654 13.264L18.7254 13.972C18.1894 14.06 17.6334 14.128 17.0574 14.176C16.4894 14.224 15.9214 14.26 15.3534 14.284C14.7934 14.308 14.2454 14.324 13.7094 14.332C13.1734 14.34 12.6734 14.344 12.2094 14.344L12.1134 13.528H13.4694V10.624H12.4134V9.844H18.1614V10.624H17.0934V13.396C17.3654 13.38 17.6294 13.364 17.8854 13.348C18.1494 13.324 18.4094 13.296 18.6654 13.264ZM14.4294 10.624V13.504C14.7094 13.496 14.9934 13.492 15.2814 13.492C15.5694 13.484 15.8574 13.472 16.1454 13.456V10.624H14.4294ZM14.5854 17.812V18.988H20.8254V19.768H13.6254V17.08H19.4574V16H13.5894V15.232H20.4294V17.812H14.5854ZM28.4805 17.752H32.8845V18.556H23.1045V17.752H27.4845V15.724H24.3285V12.4H30.7125V10.72H24.3045V9.916H31.6725V13.192H25.3005V14.932H31.9245V15.724H28.4805V17.752ZM39.0035 14.272C38.4435 14.272 37.9315 14.216 37.4675 14.104C37.0115 13.992 36.6155 13.836 36.2795 13.636C35.9515 13.428 35.6955 13.18 35.5115 12.892C35.3355 12.596 35.2475 12.268 35.2475 11.908C35.2475 11.548 35.3355 11.224 35.5115 10.936C35.6955 10.648 35.9515 10.404 36.2795 10.204C36.6155 9.996 37.0115 9.836 37.4675 9.724C37.9315 9.612 38.4435 9.556 39.0035 9.556C39.5635 9.556 40.0755 9.612 40.5395 9.724C41.0035 9.836 41.3995 9.996 41.7275 10.204C42.0555 10.404 42.3115 10.648 42.4955 10.936C42.6795 11.224 42.7715 11.548 42.7715 11.908C42.7715 12.268 42.6795 12.596 42.4955 12.892C42.3115 13.18 42.0555 13.428 41.7275 13.636C41.3995 13.836 41.0035 13.992 40.5395 14.104C40.0755 14.216 39.5635 14.272 39.0035 14.272ZM39.0035 10.348C38.5955 10.348 38.2235 10.384 37.8875 10.456C37.5515 10.528 37.2595 10.632 37.0115 10.768C36.7715 10.904 36.5835 11.068 36.4475 11.26C36.3195 11.452 36.2555 11.668 36.2555 11.908C36.2555 12.148 36.3195 12.364 36.4475 12.556C36.5835 12.748 36.7715 12.916 37.0115 13.06C37.2595 13.196 37.5515 13.3 37.8875 13.372C38.2235 13.444 38.5955 13.48 39.0035 13.48C39.4115 13.48 39.7835 13.444 40.1195 13.372C40.4635 13.3 40.7555 13.196 40.9955 13.06C41.2435 12.916 41.4315 12.748 41.5595 12.556C41.6955 12.364 41.7635 12.148 41.7635 11.908C41.7635 11.668 41.6955 11.452 41.5595 11.26C41.4315 11.068 41.2435 10.904 40.9955 10.768C40.7555 10.632 40.4635 10.528 40.1195 10.456C39.7835 10.384 39.4115 10.348 39.0035 10.348ZM43.8995 15.292V16.108H39.4955V19.9H38.5115V16.108H34.1555V15.292H43.8995Z" fill="white"/>
</svg>
