<svg width="121" height="149" viewBox="0 0 121 149" fill="none" xmlns="http://www.w3.org/2000/svg">
<g id="&#236;&#131;&#136;&#235;&#161;&#156;&#236;&#154;&#180; &#235;&#161;&#156;&#234;&#179;&#160;.">
<g id="Group">
<path id="Vector" d="M60.1556 34.6074C93.3668 34.6074 120.302 57.7204 120.302 86.2329C120.302 103.851 110.016 119.401 94.3176 128.721L99.046 144.755C99.2317 145.382 99.2273 146.051 99.0334 146.675C98.8394 147.3 98.4647 147.853 97.9565 148.265C97.4484 148.676 96.8297 148.927 96.1788 148.986C95.528 149.046 94.8742 148.91 94.3003 148.597L72.465 136.794C68.4003 137.502 64.2812 137.85 60.1556 137.832C26.9357 137.832 0.000236511 114.72 0.000236511 86.207C0.000236511 57.6944 26.9357 34.6074 60.1556 34.6074ZM53.7761 120.344C75.3867 120.344 92.9173 105.296 92.9173 86.7435C92.9173 68.1908 75.3954 53.1428 53.7761 53.1428C32.1568 53.1428 14.6263 68.1822 14.6263 86.7435C14.6263 105.305 32.1568 120.344 53.7761 120.344Z" fill="#DBDBDB"/>
<g id="Group_2">
<path id="Vector_2" d="M61.3429 90.2305C59.1325 90.2305 57.3407 88.4368 57.3407 86.2241C57.3407 84.0113 59.1325 82.2176 61.3429 82.2176C63.5533 82.2176 65.3452 84.0113 65.3452 86.2241C65.3452 88.4368 63.5533 90.2305 61.3429 90.2305Z" fill="#DBDBDB"/>
<path id="Vector_3" d="M48.5236 96.3831C46.3132 96.3831 44.5213 94.5893 44.5213 92.3766C44.5213 90.1639 46.3132 88.3701 48.5236 88.3701C50.734 88.3701 52.5259 90.1639 52.5259 92.3766C52.5259 94.5893 50.734 96.3831 48.5236 96.3831Z" fill="#DBDBDB"/>
<path id="Vector_4" d="M35.7037 90.2305C33.4933 90.2305 31.7014 88.4368 31.7014 86.2241C31.7014 84.0113 33.4933 82.2176 35.7037 82.2176C37.9142 82.2176 39.7061 84.0113 39.7061 86.2241C39.7061 88.4368 37.9142 90.2305 35.7037 90.2305Z" fill="#DBDBDB"/>
</g>
</g>
<g id="&#240;&#159;&#166;&#134; icon &#34;musical note&#34;">
<path id="Vector_5" d="M65.919 0C43.2594 0 38.7274 3.99223 38.7274 3.99223V20.3204C38.0476 20.1208 37.2319 19.9611 36.4615 19.9611C32.7 19.9611 29.6636 22.6359 29.6636 25.9495C29.6636 29.263 32.7 31.9378 36.4615 31.9378C40.223 31.9378 43.2594 29.263 43.2594 25.9495V10.1003C46.5677 9.18212 52.2779 8.34375 61.3871 8.10422V16.3282C60.7073 16.1286 59.8915 15.9689 59.1211 15.9689C55.3596 15.9689 52.3232 18.6437 52.3232 21.9572C52.3232 25.2708 55.3596 27.9456 59.1211 27.9456C62.8826 27.9456 65.919 25.2708 65.919 21.9572V0Z" fill="#DBDBDB"/>
</g>
</g>
</svg>
