<svg width="322" height="44" viewBox="0 0 322 44" fill="none" xmlns="http://www.w3.org/2000/svg">
<rect width="322" height="44" rx="22" fill="#F26E22"/>
<path d="M160.595 21.484V20.294H158.621V15.422H157.179V28.092H158.621V21.484H160.595ZM150.781 23.78V17.802H155.219V16.626H149.339V24.984H150.375C152.657 24.984 154.379 24.9 156.283 24.564L156.129 23.374C154.379 23.668 152.797 23.78 150.781 23.78ZM167.426 15.702C164.668 15.702 162.918 16.612 162.918 18.124C162.918 19.622 164.668 20.546 167.426 20.546C170.184 20.546 171.934 19.622 171.934 18.124C171.934 16.612 170.184 15.702 167.426 15.702ZM167.426 16.822C169.344 16.822 170.436 17.284 170.436 18.124C170.436 18.964 169.344 19.412 167.426 19.412C165.508 19.412 164.402 18.964 164.402 18.124C164.402 17.284 165.508 16.822 167.426 16.822ZM173.138 21.47H161.7V22.618H173.138V21.47ZM171.752 23.696H163.072V27.924H171.752V23.696ZM164.5 24.844H170.338V26.776H164.5V24.844Z" fill="white"/>
</svg>
