<svg width="120" height="34" viewBox="0 0 120 34" fill="none" xmlns="http://www.w3.org/2000/svg">
<rect width="120" height="34" rx="17" fill="#F26E22"/>
<path d="M53.5436 13.068H51.7656V10.422H50.3236V16.96H51.7656V14.258H53.5436V13.068ZM49.5676 16.19L49.4976 15.14C48.9516 15.21 48.3916 15.238 47.8316 15.28V12.382H48.9796V11.234H42.2176V12.382H43.3656V15.448H41.8816L42.0356 16.624C44.2476 16.624 47.0196 16.568 49.5676 16.19ZM44.7516 15.42V12.382H46.4316V15.364C45.8716 15.406 45.2976 15.406 44.7516 15.42ZM45.0456 21.832V20.726H51.7656V17.534H43.6036V18.654H50.3376V19.662H43.6316V22.966H52.1856V21.832H45.0456ZM66.2265 20.404H61.2005V18.248H65.1485V17.086H57.5745V15.322H64.8685V11.318H56.1325V12.48H63.4405V14.174H56.1605V18.248H59.7585V20.404H54.7745V21.594H66.2265V20.404ZM73.3515 16.512C75.9975 16.512 77.8315 15.42 77.8315 13.698C77.8315 11.976 75.9975 10.898 73.3515 10.898C70.6775 10.898 68.8575 11.976 68.8575 13.698C68.8575 15.42 70.6775 16.512 73.3515 16.512ZM73.3515 12.06C75.1575 12.06 76.3475 12.676 76.3475 13.698C76.3475 14.762 75.1575 15.35 73.3515 15.35C71.4895 15.35 70.3415 14.762 70.3415 13.698C70.3415 12.676 71.4895 12.06 73.3515 12.06ZM79.1055 18.78V17.59H67.6395V18.78H72.6095V23.078H74.0515V18.78H79.1055Z" fill="white"/>
</svg>
