<svg width="56" height="28" viewBox="0 0 56 28" fill="none" xmlns="http://www.w3.org/2000/svg">
<rect x="0.5" y="0.5" width="55" height="27" rx="13.5" fill="white" stroke="#DBDBDB"/>
<path d="M26.4289 9.136H25.4449V19.9H26.4289V9.136ZM18.0769 13.648L18.4969 14.428C19.7569 14.104 20.7049 13.408 21.1729 12.448C21.6409 13.324 22.5649 13.972 23.8129 14.272L24.2089 13.504C22.6849 13.156 21.6409 12.232 21.6409 11.152V11.128H24.0169V10.348H21.6409V9.148H20.6569V10.348H18.2929V11.128H20.6689V11.152C20.6689 12.304 19.6249 13.288 18.0769 13.648ZM24.7489 15.556L24.6769 14.824C22.3249 15.172 19.6249 15.172 17.5729 15.172L17.7049 16C18.6169 16 19.6249 15.988 20.6809 15.952V19.576H21.6649V15.892C22.6849 15.832 23.7409 15.736 24.7489 15.556ZM37.504 15.196L37.924 14.38C36.04 14.056 33.988 12.46 33.988 10.672V9.844H32.956V10.672C32.956 12.46 30.916 14.056 29.032 14.38L29.44 15.196C31.096 14.848 32.764 13.732 33.472 12.196C34.18 13.732 35.86 14.836 37.504 15.196ZM38.404 17.68H33.964V15.064H32.98V17.68H28.636V18.484H38.404V17.68Z" fill="#767676"/>
</svg>
